<?xml version="1.0" encoding="UTF-8"?>
<svg id="Capa_2" data-name="Capa 2" xmlns="http://www.w3.org/2000/svg" viewBox="0 0 159.16 87.62">
  <defs>
    <style>
      .cls-1 {
        fill: #fff;
      }
    </style>
  </defs>
  <g id="Capa_1-2" data-name="Capa 1">
    <g>
      <path class="cls-1" d="m156.59,8.62c-2.55-3.17-6.41-4.65-10.18-4.3-.78-.08-31.52-.44-32.3-.36-1.52-.16-3.08-.02-4.57.43-3.14.6-5.83,2.44-7.53,5.01-.55.55-46.91,57.69-47.34,58.35-2.1,2.11-3.4,5.01-3.4,8.22,0,6.43,5.21,11.65,11.65,11.65,4.07,0,7.64-2.09,9.72-5.24.48-.48,35.07-43.1,44.8-55.17,8.21.13,28.2.35,28.83.29,2.96.32,6.04-.49,8.54-2.5,5.01-4.03,5.81-11.36,1.78-16.37Z"/>
      <path class="cls-1" d="m75.71,12.23c0-6.75-5.47-12.23-12.23-12.23-4.27,0-8.02,2.19-10.21,5.51-.59.59-26.15,32.1-26.61,32.79-2.21,2.21-3.58,5.27-3.58,8.64,0,6.75,5.47,12.23,12.23,12.23,4.27,0,8.02-2.19,10.21-5.51.59-.59,26.15-32.1,26.61-32.79,2.21-2.21,3.58-5.27,3.58-8.64Z"/>
      <path class="cls-1" d="m12.23,63.17c-6.75,0-12.23,5.47-12.23,12.23s5.47,12.23,12.23,12.23,12.23-5.47,12.23-12.23-5.47-12.23-12.23-12.23Z"/>
      <path class="cls-1" d="m114.74,63.17c-6.75,0-12.23,5.47-12.23,12.23s5.47,12.23,12.23,12.23,12.23-5.47,12.23-12.23-5.47-12.23-12.23-12.23Z"/>
    </g>
  </g>
</svg>