<?xml version="1.0" encoding="UTF-8"?>
<svg id="Capa_2" data-name="Capa 2" xmlns="http://www.w3.org/2000/svg" viewBox="0 0 18.17 18.17">
  <defs>
    <style>
      .cls-1 {
        fill: #fff;
      }
    </style>
  </defs>
  <g id="Capa_1-2" data-name="Capa 1">
    <g>
      <path class="cls-1" d="m9.09,0C4.08,0,0,4.08,0,9.09s4.08,9.09,9.09,9.09,9.09-4.08,9.09-9.09S14.1,0,9.09,0Zm0,17.01c-4.38,0-7.92-3.55-7.92-7.92S4.71,1.16,9.09,1.16s7.92,3.55,7.92,7.92-3.55,7.92-7.92,7.92Z"/>
      <path class="cls-1" d="m14.89,6.17c-.14-.52-.55-.93-1.07-1.07-.94-.25-4.73-.25-4.73-.25,0,0-3.79,0-4.73.25-.52.14-.93.55-1.07,1.07-.25.94-.25,2.92-.25,2.92,0,0,0,1.97.25,2.92.14.52.55.93,1.07,1.07.94.25,4.73.25,4.73.25,0,0,3.79,0,4.73-.25.52-.14.93-.55,1.07-1.07.25-.94.25-2.92.25-2.92,0,0,0-1.97-.25-2.92Zm-7.02,4.73v-3.63l3.15,1.82-3.15,1.82Z"/>
    </g>
  </g>
</svg>