<?xml version="1.0" encoding="UTF-8"?>
<svg id="Capa_2" data-name="Capa 2" xmlns="http://www.w3.org/2000/svg" viewBox="0 0 76.53 58.95">
  <defs>
    <style>
      .cls-1 {
        fill: #3c3c3b;
      }
    </style>
  </defs>
  <g id="Capa_1-2" data-name="Capa 1">
    <path class="cls-1" d="m76.25,17.33L65.72.82C65.39.31,64.83,0,64.23,0h-25.96c-.98,0-1.77.79-1.77,1.77s.79,1.77,1.77,1.77h24.99l9.28,14.54-18.2,19.47L17.8.53c-.33-.34-.77-.52-1.25-.53-.05,0-.1.01-.16.02-.05,0-.11-.02-.16-.02h-4.98C10.62,0,10.03.34,9.72.89L.24,17.4c-.39.68-.29,1.52.25,2.09l36.64,38.89c.32.34.78.54,1.25.55.04,0,.09,0,.13,0,.44,0,.86-.2,1.2-.57l36.35-38.89c.55-.59.63-1.48.2-2.16ZM15.8,3.54l36.12,36.6-13.51,14.45L3.96,18.03,12.28,3.54h3.52Z"/>
  </g>
</svg>