<?xml version="1.0" encoding="UTF-8"?>
<svg id="Capa_2" data-name="Capa 2" xmlns="http://www.w3.org/2000/svg" viewBox="0 0 60.88 64.4">
  <defs>
    <style>
      .cls-1 {
        fill: #3c3c3b;
      }
    </style>
  </defs>
  <g id="Capa_1-2" data-name="Capa 1">
    <g>
      <path class="cls-1" d="m30.44,0C13.63,0,0,13.63,0,30.44h60.88C60.88,13.63,47.25,0,30.44,0Z"/>
      <g>
        <path class="cls-1" d="m57.55,33.96c0,14.95-12.16,27.11-27.11,27.11S3.33,48.91,3.33,33.96H0c0,16.78,13.66,30.44,30.44,30.44s30.44-13.66,30.44-30.44h-3.33Z"/>
        <path class="cls-1" d="m30.44,56.78c12.58,0,22.82-10.24,22.82-22.82h-3.33c0,10.75-8.74,19.49-19.49,19.49s-19.49-8.74-19.49-19.49h-3.33c0,12.58,10.24,22.82,22.82,22.82Z"/>
      </g>
    </g>
  </g>
</svg>