<?xml version="1.0" encoding="UTF-8"?>
<svg id="Capa_2" data-name="Capa 2" xmlns="http://www.w3.org/2000/svg" viewBox="0 0 36 36">
  <defs>
    <style>
      .cls-1 {
        fill: #04b0bd;
      }
    </style>
  </defs>
  <g id="Capa_1-2" data-name="Capa 1">
    <g>
      <path class="cls-1" d="m18,0C8.07,0,0,8.07,0,18s8.07,18,18,18,18-8.08,18-18S27.93,0,18,0Zm0,33.69c-8.67,0-15.69-7.03-15.69-15.69S9.33,2.31,18,2.31s15.69,7.03,15.69,15.69-7.03,15.69-15.69,15.69Z"/>
      <path class="cls-1" d="m25.65,13.53c-.68-.2-1.38-.25-2.09-.25-1.29-.01-2.39.43-3.33,1.31-.3.29-.55.62-.84.96,0-.54,0-1.09,0-1.63,0-.21-.05-.29-.28-.28-1.23.01-2.45,0-3.68,0-.21,0-.29.05-.29.28,0,4.56,0,9.11,0,13.67,0,.21.06.26.27.26,1.29,0,2.58-.01,3.87,0,.23,0,.29-.07.29-.3,0-2.3,0-4.6,0-6.9,0-.37.02-.74.07-1.11.19-1.54.98-2.3,2.5-2.38,1.11-.06,1.87.48,2.18,1.54.17.58.2,1.17.21,1.76,0,2.37,0,4.73,0,7.1,0,.21.05.28.27.28,1.28-.01,2.56-.01,3.84,0,.23,0,.29-.06.29-.29,0-2.49,0-4.97,0-7.46,0-1.18-.06-2.35-.39-3.5-.43-1.53-1.34-2.6-2.9-3.05Z"/>
      <path class="cls-1" d="m12.38,13.93c0-.21-.03-.31-.28-.31-1.3.01-2.6,0-3.9,0-.2,0-.25.07-.25.25,0,4.56,0,9.13,0,13.69,0,.21.06.26.27.26,1.28,0,2.56-.01,3.84,0,.26,0,.32-.07.32-.32,0-2.25,0-4.51,0-6.76s0-4.54,0-6.82Z"/>
      <path class="cls-1" d="m10.17,6.56c-1.41,0-2.57,1.16-2.56,2.57,0,1.39,1.16,2.55,2.56,2.55,1.41,0,2.56-1.15,2.56-2.57,0-1.39-1.15-2.54-2.55-2.54Z"/>
    </g>
  </g>
</svg>