<?xml version="1.0" encoding="UTF-8"?>
<svg id="Capa_2" data-name="Capa 2" xmlns="http://www.w3.org/2000/svg" viewBox="0 0 46.37 38.74">
  <defs>
    <style>
      .cls-1 {
        fill: #fff;
      }

      .cls-2 {
        fill: #04b0bd;
      }
    </style>
  </defs>
  <g id="Capa_1-2" data-name="Capa 1">
    <g>
      <g>
        <path class="cls-2" d="m0,.98C.32.23.91-.01,1.71,0c2.16.03,4.33.01,6.5.01,1.06,0,1.45.29,1.72,1.31,1.03,3.85,2.06,7.7,3.09,11.56.04.14.09.27.14.44,1.58-.42,3.13-.84,4.68-1.26,4.59-1.23,9.18-2.46,13.77-3.68,1.01-.27,1.61.07,1.88,1.07,1.62,6.03,3.23,12.06,4.85,18.09.03.13.08.25.12.39.36-.09.7-.18,1.04-.27.9-.24,1.58.1,1.79.88.2.74-.24,1.38-1.13,1.61-6.07,1.63-12.14,3.25-18.21,4.86-.37.1-.53.24-.61.63-.37,1.84-2.03,3.15-3.85,3.08-1.91-.07-3.49-1.45-3.74-3.33-.18-1.38.27-2.55,1.33-3.46.22-.19.29-.34.21-.64-2.54-9.45-5.07-18.91-7.6-28.36-.03-.11-.07-.23-.11-.36H2.51c-.27,0-.54-.02-.81,0-.8.07-1.38-.22-1.7-.97v-.65Zm24,18.01c-.38.65-.73,1.25-1.07,1.86-.3.54-.72.87-1.36.81-.59-.06-.96-.42-1.15-1.13-.3-1.09-.59-2.18-.88-3.27-.25-.92-.49-1.83-.75-2.78-1.68.45-3.32.89-4.94,1.32,0,.07-.01.08,0,.09,1.32,4.94,2.64,9.88,3.96,14.82.06.24.18.31.41.35.93.14,1.7.58,2.29,1.3.19.23.35.28.64.21,3.69-1,7.39-1.98,11.08-2.97,1.23-.33,2.46-.66,3.72-1-1.56-5.83-3.12-11.63-4.68-17.46-1.68.45-3.32.89-4.97,1.33.03.14.04.23.07.32.5,1.89,1.01,3.79,1.51,5.68.06.23.12.48.09.71-.11.96-1.07,1.42-1.97.94-.66-.36-1.3-.74-1.99-1.14Zm-1.85-1.94c.58-1.22,1.4-1.38,2.49-.69-.3-1.13-.58-2.16-.87-3.21-.84.23-1.65.44-2.49.67.29,1.07.56,2.1.87,3.23Zm-5.86,17.83c0,.71.58,1.27,1.28,1.27.7,0,1.28-.58,1.28-1.28,0-.7-.61-1.3-1.32-1.3-.69,0-1.26.59-1.25,1.3Z"/>
        <path class="cls-2" d="m16.28,34.89c0-.71.56-1.3,1.25-1.3.71,0,1.32.6,1.32,1.3,0,.7-.58,1.27-1.28,1.28-.71,0-1.28-.56-1.28-1.27Z"/>
      </g>
      <circle class="cls-2" cx="38.34" cy="27.17" r="8.03"/>
      <path class="cls-1" d="m43.34,28.37h-3.81v3.67h-2.4v-3.67h-3.81v-2.38h3.78v-3.7h2.42v3.7h3.81v2.38Z"/>
    </g>
  </g>
</svg>