<?xml version="1.0" encoding="UTF-8"?>
<svg id="Capa_2" data-name="Capa 2" xmlns="http://www.w3.org/2000/svg" viewBox="0 0 98.82 61.02">
  <defs>
    <style>
      .cls-1 {
        fill: #3c3c3b;
      }
    </style>
  </defs>
  <g id="Capa_1-2" data-name="Capa 1">
    <path class="cls-1" d="m98.3,48.21c-5.42-5.36-12.27-8.78-19.8-9.89-.96-.14-1.86.53-1.99,1.49-.14.96.53,1.85,1.49,2,6.16.9,11.84,3.54,16.49,7.65-5.72,5.05-13.07,7.9-20.78,8.04-7.34.14-14.42-2.19-20.17-6.57,17.52-2.25,31.19-17.24,31.29-35.26,0-.47-.19-.92-.51-1.25-.35-.36-.83-.55-1.28-.52-7.46.05-14.58,2.38-20.6,6.75-.78.57-.96,1.67-.39,2.46.28.38.68.63,1.15.7.46.07.93-.04,1.31-.31,4.92-3.57,10.69-5.64,16.75-6.02-.5,7.97-3.94,15.42-9.77,21.06-5.04,4.88-11.39,7.95-18.22,8.86,10.8-13.96,9.94-34.16-2.66-46.9-.32-.32-.78-.51-1.25-.51s-.93.19-1.25.51c-5.37,5.42-8.78,12.27-9.89,19.8-.14.96.53,1.85,1.49,2,.96.14,1.85-.53,1.99-1.49.9-6.16,3.54-11.84,7.65-16.49,5.24,5.95,8.04,13.62,7.89,21.69-.13,6.99-2.46,13.62-6.63,19.08-2.23-17.37-17.04-31-34.83-31.18-.48,0-.93.18-1.26.51-.33.33-.52.78-.52,1.25v3.27c0,.06,0,.12,0,.18.61,5.99,2.76,11.76,6.21,16.69.55.79,1.65.99,2.45.43.38-.27.64-.67.72-1.14.08-.46-.02-.93-.29-1.32-3.09-4.42-5.02-9.59-5.58-14.94v-1.35c7.88.52,15.25,3.98,20.83,9.78,4.82,5.01,7.84,11.32,8.75,18.08-13.86-10.67-33.94-9.62-46.56,2.74C.19,48.43,0,48.87,0,49.34c0,.47.19.92.52,1.25l2.3,2.3s.09.08.14.13c6.29,5.13,14.25,7.95,22.39,7.95h.07c6.37,0,12.61-1.72,18.06-4.95.4-.24.69-.62.81-1.08.12-.46.05-.93-.19-1.33-.24-.4-.62-.69-1.08-.81-.46-.12-.93-.05-1.33.19-4.9,2.91-10.52,4.45-16.26,4.45h-.09c-7.3,0-14.43-2.53-20.08-7.11l-.95-.95c5.95-5.21,13.59-8,21.62-7.87,8.32.13,16.13,3.4,21.98,9.18,0,0,0,0,0,0,0,0,0,0,0,0,0,0,0,0,0,0,0,0,0,0,.01,0,6.72,6.64,15.66,10.3,25.18,10.3h0c9.53,0,18.48-3.66,25.2-10.31.33-.33.52-.78.52-1.25s-.19-.92-.52-1.25Z"/>
  </g>
</svg>