<?xml version="1.0" encoding="UTF-8"?>
<svg id="Capa_2" data-name="Capa 2" xmlns="http://www.w3.org/2000/svg" viewBox="0 0 86.79 51.1">
  <defs>
    <style>
      .cls-1 {
        fill: #3c3c3b;
      }
    </style>
  </defs>
  <g id="Capa_1-2" data-name="Capa 1">
    <g>
      <path class="cls-1" d="m59.71,36.37c-.18-.44-15.09-29.98-15.34-30.39-.78-1.88-2.16-3.53-4.06-4.64-4.63-2.72-10.59-1.16-13.3,3.47-1.86,3.18-1.72,6.98.06,9.93.18.44,14.45,28.71,14.7,29.12.18.44.39.86.64,1.27.78,1.88,2.16,3.53,4.06,4.64,4.63,2.72,10.59,1.16,13.3-3.47,1.86-3.18,1.72-6.98-.06-9.93Z"/>
      <path class="cls-1" d="m42.5,16.37c1.63-1.74,2.63-4.08,2.63-6.65C45.13,4.35,40.78,0,35.41,0,32.1,0,29.19,1.65,27.43,4.17c-.32.34-24.53,30.18-24.8,30.56-1.63,1.74-2.63,4.08-2.63,6.65,0,5.37,4.35,9.72,9.72,9.72,3.3,0,6.22-1.65,7.97-4.16.32-.34,24.53-30.18,24.8-30.56Z"/>
      <path class="cls-1" d="m84.15,16.37c1.63-1.74,2.63-4.08,2.63-6.65C86.79,4.35,82.43,0,77.06,0c-3.3,0-6.22,1.65-7.97,4.16-.32.34-24.53,30.18-24.8,30.56-1.63,1.74-2.63,4.08-2.63,6.65,0,5.37,4.35,9.72,9.72,9.72,3.3,0,6.22-1.65,7.97-4.16.32-.34,24.53-30.18,24.8-30.56Z"/>
    </g>
  </g>
</svg>