<?xml version="1.0" encoding="UTF-8"?>
<svg id="Capa_2" data-name="Capa 2" xmlns="http://www.w3.org/2000/svg" viewBox="0 0 18.17 18.17">
  <defs>
    <style>
      .cls-1 {
        fill: #fff;
      }
    </style>
  </defs>
  <g id="Capa_1-2" data-name="Capa 1">
    <g>
      <path class="cls-1" d="m9.09,0C4.08,0,0,4.08,0,9.09s4.08,9.09,9.09,9.09,9.09-4.08,9.09-9.09S14.1,0,9.09,0Zm0,17.01c-4.38,0-7.92-3.55-7.92-7.92S4.71,1.16,9.09,1.16s7.92,3.55,7.92,7.92-3.55,7.92-7.92,7.92Z"/>
      <path class="cls-1" d="m14.77,6.73c-.03-.61-.12-1.02-.27-1.39-.15-.38-.34-.7-.66-1.01s-.64-.51-1.01-.66c-.36-.14-.78-.24-1.39-.27-.61-.03-.81-.03-2.36-.03s-1.75,0-2.36.03c-.61.03-1.02.12-1.39.27-.38.15-.7.34-1.01.66s-.51.64-.66,1.01c-.14.36-.24.78-.27,1.39-.03.61-.03.81-.03,2.36s0,1.75.03,2.36c.03.61.12,1.02.27,1.39.15.38.34.7.66,1.01.32.32.64.51,1.01.66.36.14.78.24,1.39.27.61.03.81.03,2.36.03s1.75,0,2.36-.03c.61-.03,1.02-.12,1.39-.27.38-.15.7-.34,1.01-.66.32-.32.51-.64.66-1.01.14-.36.24-.78.27-1.39.03-.61.03-.81.03-2.36s0-1.75-.03-2.36Zm-1.03,4.67c-.03.56-.12.86-.2,1.06-.1.27-.23.46-.43.66-.2.2-.39.32-.66.43-.2.08-.5.17-1.06.2-.6.03-.78.03-2.31.03s-1.71,0-2.31-.03c-.56-.03-.86-.12-1.06-.2-.27-.1-.46-.23-.66-.43-.2-.2-.32-.39-.43-.66-.08-.2-.17-.5-.2-1.06-.03-.6-.03-.78-.03-2.31s0-1.71.03-2.31c.03-.56.12-.86.2-1.06.1-.27.23-.46.43-.66.2-.2.39-.32.66-.43.2-.08.5-.17,1.06-.2.6-.03.78-.03,2.31-.03s1.71,0,2.31.03c.56.03.86.12,1.06.2.27.1.46.23.66.43.2.2.32.39.43.66.08.2.17.5.2,1.06.03.6.03.78.03,2.31s0,1.71-.03,2.31Z"/>
      <path class="cls-1" d="m9.09,6.15c-1.62,0-2.94,1.32-2.94,2.94s1.32,2.94,2.94,2.94,2.94-1.32,2.94-2.94-1.32-2.94-2.94-2.94Zm0,4.85c-1.05,0-1.91-.85-1.91-1.91s.85-1.91,1.91-1.91,1.91.85,1.91,1.91-.85,1.91-1.91,1.91Z"/>
      <circle class="cls-1" cx="12.14" cy="6.03" r=".69"/>
    </g>
  </g>
</svg>