<?xml version="1.0" encoding="UTF-8"?>
<svg id="Capa_2" data-name="Capa 2" xmlns="http://www.w3.org/2000/svg" viewBox="0 0 66.4 59.93">
  <defs>
    <style>
      .cls-1 {
        fill: #3c3c3b;
      }
    </style>
  </defs>
  <g id="Capa_1-2" data-name="Capa 1">
    <path class="cls-1" d="m49.42,0c-5.55-.03-10.48,2.84-13.57,7.3l10.8,12.57c.86,1.01.75,2.52-.26,3.39-.45.39-1.01.58-1.56.58-.68,0-1.35-.28-1.82-.84-3.22-3.75-6.44-7.49-9.66-11.24l-5.33-6.2c-1.29-1.5-2.45-3.17-4.27-4.08C21.7.45,19.28-.01,16.99,0,6.06.07-1.98,12.15.43,23.46c1.2,5.63,5.24,10.22,8.45,14.64,4.1,5.65,12.1,13.67,17.8,19.15,3.72,3.57,9.32,3.57,13.04,0,5.7-5.48,13.7-13.49,17.8-19.15,3.21-4.43,7.25-9.01,8.45-14.64C68.38,12.15,60.34.07,49.42,0Z"/>
  </g>
</svg>