<?xml version="1.0" encoding="UTF-8"?>
<svg id="Capa_2" data-name="Capa 2" xmlns="http://www.w3.org/2000/svg" viewBox="0 0 18.17 18.17">
  <defs>
    <style>
      .cls-1 {
        fill: #fff;
      }
    </style>
  </defs>
  <g id="Capa_1-2" data-name="Capa 1">
    <g>
      <path class="cls-1" d="m9.09,0C4.08,0,0,4.08,0,9.09s4.08,9.09,9.09,9.09,9.09-4.08,9.09-9.09S14.1,0,9.09,0Zm0,17.01c-4.38,0-7.92-3.55-7.92-7.92S4.71,1.16,9.09,1.16s7.92,3.55,7.92,7.92-3.55,7.92-7.92,7.92Z"/>
      <path class="cls-1" d="m13.93,6.27c.5-.3.88-.77,1.06-1.33-.47.28-.98.48-1.53.59-.44-.47-1.07-.76-1.76-.76-1.33,0-2.41,1.08-2.41,2.41,0,.19.02.37.06.55-2.01-.1-3.78-1.06-4.97-2.52-.21.36-.33.77-.33,1.21,0,.84.43,1.58,1.07,2.01-.4-.01-.77-.12-1.09-.3,0,.01,0,.02,0,.03,0,1.17.83,2.14,1.94,2.37-.2.06-.42.08-.64.08-.16,0-.31-.02-.45-.04.31.96,1.2,1.66,2.25,1.68-.83.65-1.87,1.03-3,1.03-.19,0-.39-.01-.58-.03,1.07.68,2.34,1.08,3.7,1.08,4.44,0,6.87-3.68,6.87-6.87,0-.1,0-.21,0-.31.47-.34.88-.77,1.2-1.25-.43.19-.9.32-1.39.38Z"/>
    </g>
  </g>
</svg>