<?xml version="1.0" encoding="UTF-8"?>
<svg id="Capa_2" data-name="Capa 2" xmlns="http://www.w3.org/2000/svg" viewBox="0 0 18.17 18.17">
  <defs>
    <style>
      .cls-1 {
        fill: #fff;
      }
    </style>
  </defs>
  <g id="Capa_1-2" data-name="Capa 1">
    <g>
      <path class="cls-1" d="m9.09,0C4.08,0,0,4.08,0,9.09s4.08,9.09,9.09,9.09,9.09-4.08,9.09-9.09S14.1,0,9.09,0Zm0,17.01c-4.38,0-7.92-3.55-7.92-7.92S4.71,1.16,9.09,1.16s7.92,3.55,7.92,7.92-3.55,7.92-7.92,7.92Z"/>
      <path class="cls-1" d="m12.95,6.83c-.34-.1-.7-.13-1.06-.13-.65,0-1.21.22-1.68.66-.15.14-.28.31-.43.48,0-.27,0-.55,0-.82,0-.11-.03-.14-.14-.14-.62,0-1.24,0-1.86,0-.11,0-.14.03-.14.14,0,2.3,0,4.6,0,6.9,0,.11.03.13.13.13.65,0,1.3,0,1.95,0,.12,0,.15-.03.15-.15,0-1.16,0-2.32,0-3.48,0-.19.01-.37.03-.56.1-.78.5-1.16,1.26-1.2.56-.03.95.24,1.1.78.08.29.1.59.1.89,0,1.19,0,2.39,0,3.58,0,.11.02.14.14.14.65,0,1.29,0,1.94,0,.12,0,.15-.03.15-.15,0-1.26,0-2.51,0-3.77,0-.6-.03-1.19-.2-1.77-.22-.77-.68-1.31-1.47-1.54Z"/>
      <path class="cls-1" d="m6.25,7.03c0-.11-.02-.16-.14-.16-.66,0-1.31,0-1.97,0-.1,0-.12.03-.12.13,0,2.3,0,4.61,0,6.91,0,.11.03.13.13.13.65,0,1.29,0,1.94,0,.13,0,.16-.04.16-.16,0-1.14,0-2.28,0-3.41s0-2.29,0-3.44Z"/>
      <path class="cls-1" d="m5.14,3.31c-.71,0-1.3.58-1.29,1.3,0,.7.59,1.29,1.29,1.29.71,0,1.29-.58,1.29-1.3,0-.7-.58-1.28-1.29-1.28Z"/>
    </g>
  </g>
</svg>