<?xml version="1.0" encoding="UTF-8"?>
<svg id="Capa_2" data-name="Capa 2" xmlns="http://www.w3.org/2000/svg" viewBox="0 0 300.71 27.11">
  <defs>
    <style>
      .cls-1 {
        fill: #fff;
      }
    </style>
  </defs>
  <g id="Capa_1-2" data-name="Capa 1">
    <g>
      <g>
        <path class="cls-1" d="m48.27,2.66c-.79-.98-1.98-1.43-3.14-1.32-.24-.03-9.72-.14-9.96-.11-.47-.05-.95,0-1.41.13-.97.19-1.8.75-2.32,1.55-.17.17-14.46,17.78-14.59,17.99-.65.65-1.05,1.55-1.05,2.54,0,1.98,1.61,3.59,3.59,3.59,1.25,0,2.36-.64,3-1.62.15-.15,10.81-13.29,13.81-17.01,2.53.04,8.69.11,8.89.09.91.1,1.86-.15,2.63-.77,1.55-1.24,1.79-3.5.55-5.05Z"/>
        <path class="cls-1" d="m23.34,3.77c0-2.08-1.69-3.77-3.77-3.77-1.32,0-2.47.68-3.15,1.7-.18.18-8.06,9.89-8.2,10.11-.68.68-1.1,1.62-1.1,2.66,0,2.08,1.69,3.77,3.77,3.77,1.32,0,2.47-.68,3.15-1.7.18-.18,8.06-9.89,8.2-10.11.68-.68,1.1-1.62,1.1-2.66Z"/>
        <path class="cls-1" d="m3.77,19.47c-2.08,0-3.77,1.69-3.77,3.77s1.69,3.77,3.77,3.77,3.77-1.69,3.77-3.77-1.69-3.77-3.77-3.77Z"/>
        <path class="cls-1" d="m35.37,19.47c-2.08,0-3.77,1.69-3.77,3.77s1.69,3.77,3.77,3.77,3.77-1.69,3.77-3.77-1.69-3.77-3.77-3.77Z"/>
      </g>
      <g>
        <path class="cls-1" d="m79.84,6.83h-7.15l-2.77,19.76h-8.12l2.77-19.76h-7.11l.86-6.06h22.38l-.86,6.06Z"/>
        <path class="cls-1" d="m100.79,6.83h-8.98c-.65,0-1.11.11-1.38.34-.27.22-.45.61-.52,1.16l-.34,2.36h9.32l-.67,5.39h-9.39l-.41,2.99c-.15.97.31,1.46,1.38,1.46h8.98l-.15,5.76c-2.22.3-6.44.45-12.65.45-2.1,0-3.65-.65-4.68-1.95-1.02-1.3-1.4-2.99-1.12-5.09l1.87-13.36c.25-1.77.95-3.17,2.1-4.19,1.15-1.02,2.66-1.53,4.53-1.53,6.19,0,10.53.17,13.02.52l-.9,5.69Z"/>
        <path class="cls-1" d="m121.07,19.89l.3,5.95c-2.57.8-5.55,1.2-8.94,1.2-4.37,0-7.33-1.02-8.91-3.05-1.57-2.03-2.01-5.57-1.31-10.61.37-2.64.85-4.79,1.44-6.44.59-1.65,1.4-2.97,2.45-3.98,1.05-1.01,2.29-1.7,3.72-2.08,1.43-.37,3.26-.56,5.48-.56,3.19,0,6.02.35,8.49,1.05l-.94,5.87c-3.64-.05-6.3-.07-7.97-.07-.95,0-1.66.14-2.13.43-.47.29-.87.91-1.2,1.87-.32.96-.62,2.46-.9,4.51-.37,2.54-.45,4.22-.22,5.01.22.8,1.01,1.2,2.36,1.2,3.39,0,6.15-.1,8.27-.3Z"/>
        <path class="cls-1" d="m149.73.77l-3.63,25.82h-8.12l1.53-10.81h-6.17l-1.53,10.81h-8.12l3.63-25.82h8.12l-1.31,9.24h6.17l1.31-9.24h8.12Z"/>
        <path class="cls-1" d="m177.08.77l-3.26,23.16c-.13.92-.42,1.6-.9,2.02-.47.42-1.16.64-2.06.64h-2.69c-.77,0-1.34-.19-1.7-.56-.36-.37-.75-1.02-1.18-1.95l-4.42-8.87c-.47-.92-.91-2.34-1.31-4.27h-.26c.05,1.8-.03,3.39-.22,4.79l-1.61,10.85h-7.45l3.26-23.16c.12-.92.42-1.6.9-2.02.47-.42,1.16-.64,2.06-.64h2.69c.4,0,.74.05,1.03.15.29.1.54.29.77.58.22.29.4.53.52.73.12.2.3.55.52,1.05l4.34,8.42c.65,1.35,1.17,2.83,1.57,4.45h.3c-.12-1.5-.1-2.96.07-4.38l1.57-11h7.45Z"/>
        <path class="cls-1" d="m191.49.24c1.77,0,3.28.13,4.53.39,1.25.26,2.36.71,3.33,1.35.97.64,1.69,1.48,2.15,2.53.46,1.05.78,2.35.95,3.91.17,1.56.09,3.41-.26,5.56-.35,2.67-.85,4.85-1.5,6.55-.65,1.7-1.52,3.03-2.62,4-1.1.97-2.36,1.65-3.78,2.02-1.42.37-3.19.56-5.31.56-3.07,0-5.42-.41-7.05-1.22-1.63-.81-2.74-2.21-3.33-4.21-.59-2-.63-4.76-.13-8.31.37-2.64.87-4.81,1.5-6.49.62-1.68,1.48-3.02,2.56-4,1.09-.98,2.33-1.67,3.72-2.06,1.4-.39,3.14-.58,5.24-.58Zm2.38,7.37c-.29-.9-1.1-1.35-2.45-1.35s-2.3.48-2.86,1.44c-.56.96-1.09,3.05-1.59,6.27-.45,2.97-.53,4.9-.24,5.78.29.89,1.1,1.33,2.45,1.33s2.37-.48,2.92-1.44c.55-.96,1.07-3.05,1.57-6.27.42-2.94.49-4.86.21-5.76Z"/>
        <path class="cls-1" d="m215.21.77l-2.66,17.89c-.05.57.02.97.21,1.18.19.21.57.32,1.14.32h8.53l-.15,6.1c-2.49.32-6.62.49-12.39.49-1.87,0-3.34-.57-4.4-1.7-1.06-1.13-1.47-2.58-1.22-4.32l2.77-19.94h8.16Z"/>
        <path class="cls-1" d="m237.92.24c1.77,0,3.28.13,4.53.39,1.25.26,2.36.71,3.33,1.35.97.64,1.69,1.48,2.15,2.53.46,1.05.78,2.35.95,3.91.17,1.56.09,3.41-.26,5.56-.35,2.67-.85,4.85-1.5,6.55-.65,1.7-1.52,3.03-2.62,4-1.1.97-2.36,1.65-3.78,2.02-1.42.37-3.19.56-5.31.56-3.07,0-5.42-.41-7.05-1.22-1.63-.81-2.74-2.21-3.33-4.21-.59-2-.63-4.76-.13-8.31.37-2.64.87-4.81,1.5-6.49.62-1.68,1.48-3.02,2.56-4,1.09-.98,2.33-1.67,3.72-2.06,1.4-.39,3.14-.58,5.24-.58Zm2.38,7.37c-.29-.9-1.1-1.35-2.45-1.35s-2.3.48-2.86,1.44c-.56.96-1.09,3.05-1.59,6.27-.45,2.97-.53,4.9-.24,5.78.29.89,1.1,1.33,2.45,1.33s2.37-.48,2.92-1.44c.55-.96,1.07-3.05,1.57-6.27.42-2.94.49-4.86.21-5.76Z"/>
        <path class="cls-1" d="m266.06,11.73h7.75l-2.1,14.85h-5.95l-.3-2.99c-2.3,2.34-4.81,3.52-7.56,3.52-5.81,0-8.07-4.58-6.77-13.73.37-2.67.9-4.85,1.57-6.55.67-1.7,1.6-3.04,2.79-4.02,1.18-.99,2.54-1.66,4.06-2.02,1.52-.36,3.43-.54,5.72-.54,3.34,0,6.22.37,8.64,1.12l-.9,5.8c-3.74-.05-6.51-.07-8.31-.07-1.62,0-2.78.47-3.46,1.42-.69.95-1.24,2.77-1.67,5.46-.4,2.54-.46,4.22-.19,5.01.27.8,1.03,1.2,2.28,1.2,1.17,0,2.29-.39,3.37-1.16l1.01-7.3Z"/>
        <path class="cls-1" d="m289.67,18.76l-1.09,7.82h-8.16l1.16-8.27-5.91-17.55h8.08l1.98,8.27c.22,1,.31,2.26.26,3.78h.56c.12-1.2.5-2.43,1.12-3.7l4.38-8.34h8.64l-11.04,18Z"/>
      </g>
    </g>
  </g>
</svg>