<?xml version="1.0" encoding="UTF-8"?>
<svg id="Capa_2" data-name="Capa 2" xmlns="http://www.w3.org/2000/svg" viewBox="0 0 91.73 58.81">
  <defs>
    <style>
      .cls-1 {
        fill: #3c3c3b;
      }
    </style>
  </defs>
  <g id="Capa_1-2" data-name="Capa 1">
    <g>
      <g>
        <path class="cls-1" d="m33.82,29.54c0,9.89,4.97,18.63,12.54,23.87,7.52-5.33,12.44-14.09,12.44-24.01s-4.83-18.54-12.25-23.87c-7.68,5.23-12.73,14.04-12.73,24.01Z"/>
        <path class="cls-1" d="m29.77,29.54c0-10.71,5.12-20.25,13.04-26.3-4.02-2.07-8.58-3.24-13.41-3.24C13.16,0,0,13.16,0,29.4s13.16,29.4,29.4,29.4c4.75,0,9.23-1.13,13.21-3.13-7.8-6.06-12.83-15.52-12.83-26.13Z"/>
      </g>
      <path class="cls-1" d="m62.85,58.41c-15.92,0-28.87-12.95-28.87-28.87S46.93.67,62.85.67s28.87,12.95,28.87,28.87-12.95,28.87-28.87,28.87Zm0-53.69c-13.69,0-24.82,11.14-24.82,24.82s11.14,24.82,24.82,24.82,24.82-11.14,24.82-24.82-11.14-24.82-24.82-24.82Z"/>
    </g>
  </g>
</svg>