<?xml version="1.0" encoding="UTF-8"?>
<svg id="Capa_2" data-name="Capa 2" xmlns="http://www.w3.org/2000/svg" viewBox="0 0 53.55 65.55">
  <defs>
    <style>
      .cls-1 {
        fill: #3c3c3b;
      }
    </style>
  </defs>
  <g id="Capa_1-2" data-name="Capa 1">
    <g>
      <g>
        <path class="cls-1" d="m7.6,27.89c3.84,2.56,9.05,3.3,13.48,3.3,6.2,0,10.9-1.3,14.11-3.92,3.21-2.61,4.82-6.04,4.82-10.28,0-4.9-2.57-9.5-7.01-11.72-1.44-.72-2.91-1.29-4.47-1.66-2.27-.54-4.75-.82-7.44-.82-6.2,0-10.9,1.31-14.11,3.92-3.21,2.61-4.82,6.04-4.82,10.28,0,2.52.47,4.69,1.42,6.5.97,1.86,2.37,3.3,4.03,4.4ZM16.65,7.27c1.06-1.84,2.54-2.75,4.43-2.75s3.37.92,4.43,2.75c1.06,1.84,1.59,5.08,1.59,9.72s-.53,7.89-1.59,9.72c-1.06,1.84-2.54,2.75-4.43,2.75s-3.37-.92-4.43-2.75c-1.06-1.84-1.59-5.08-1.59-9.72s.53-7.89,1.59-9.72Z"/>
        <path class="cls-1" d="m39.79,38.81c-2.44-2.5-5.81-3.74-10.11-3.74H13.33c-2.58,0-4.38-.26-5.38-.77-.79-.41-1.43-1.09-1.49-2.02-.05-.75.31-1.32.74-1.88-2.76-.23-5.73,1.34-6.63,4-1.24,3.65-.19,7.68,2.87,10.06,2.29,1.78,5.59,2.67,9.9,2.67h16.35c6.88,0,10.33,1.86,10.33,5.59,0,2.93-1.62,5.38-4.86,7.36-3.6,2.2-7.86,3.23-12.04,3.47-4.5.26-8.64-.44-12.81-2.07,1.69-1.25,2.74-3.33,2.72-5.43-.02-2.1-1.12-4.17-2.86-5.34-1.75-1.17-4.1-1.39-6.02-.54-1.3.57-2.38,1.59-3.12,2.8-.71,1.17-1.13,2.55-.98,3.91.17,1.57,1.08,3,2.27,4.05,3.42,3.02,8.86,3.91,13.24,4.4,4.94.54,9.77.15,14.62-.87,3.99-.83,8.01-2.71,10.57-6,1.98-2.54,2.72-6.02,2.72-9.18,0-4.47-1.22-7.96-3.66-10.46Z"/>
      </g>
      <circle class="cls-1" cx="46.99" cy="6.56" r="6.56" transform="translate(.68 16.87) rotate(-20.5)"/>
    </g>
  </g>
</svg>