<?xml version="1.0" encoding="UTF-8"?>
<svg id="Capa_2" data-name="Capa 2" xmlns="http://www.w3.org/2000/svg" viewBox="0 0 70.7 67.8">
  <defs>
    <style>
      .cls-1 {
        fill: #3c3c3b;
      }
    </style>
  </defs>
  <g id="Capa_1-2" data-name="Capa 1">
    <g>
      <g>
        <path class="cls-1" d="m37.77,37.16c6.38,2.98,12.96,4.45,18.53,4.16.03,0,.07,0,.1,0l.4-39.56c.01-1.4-1.55-2.24-2.71-1.46L20.82,22.75c2.7,5.14,8.92,10.67,16.95,14.41Z"/>
        <path class="cls-1" d="m54.91,45.12c-5.8,0-12.39-1.59-18.73-4.55-8.75-4.08-15.33-9.9-18.5-15.71L.77,36.28c-1.32.89-.84,2.94.74,3.16l28.41,3.86c1.67.23,3.21,1.05,4.32,2.32l18.88,21.58c1.05,1.2,3.03.47,3.04-1.13l.21-21c-.48.02-.96.04-1.45.04Z"/>
      </g>
      <path class="cls-1" d="m54.91,42.12c-5.8,0-12.39-1.59-18.73-4.55-14.92-6.96-23.55-18.98-19.64-27.36C20.45,1.83,35.2.72,50.12,7.68c4.88,2.28,9.31,5.23,12.8,8.54.75.72.79,1.91.07,2.66-.72.75-1.91.79-2.66.07-3.2-3.03-7.28-5.75-11.8-7.86-12.58-5.87-25.67-5.54-28.59.72-2.92,6.26,5.25,16.5,17.82,22.36,6.38,2.98,12.96,4.45,18.53,4.16,5.14-.27,8.72-2,10.06-4.88,1.4-3,.05-6.43-1.34-8.77-.53-.9-.23-2.05.67-2.58.9-.53,2.05-.23,2.58.67,2.6,4.42,3.14,8.77,1.5,12.27-1.96,4.2-6.67,6.7-13.27,7.05-.52.03-1.05.04-1.59.04Z"/>
    </g>
  </g>
</svg>